# xmcd
#
# Track frame offsets: 
#        150
#        15602
#        26480
#        37132
#        50184
#        60761
#        72688
#        85361
#        98338
#        110715
#        126467
#        139894
#        152046
#
# Disc length: 2216 seconds
#
# Revision: 0
# Processed by: cddbd v1.5.1PL0 Copyright (c) Steve Scherf et al.
# Submitted via: ExactAudioCopy v0.95a5
#
DISCID=b808a60d
DTITLE=Just In Tyme - Front Porch Picking
DYEAR=2004
DGENRE=Bluegrass
TTITLE0=I Still Miss Someone
TTITLE1=Head Over Heels
TTITLE2=Sitting On Top Of The World
TTITLE3=Mule Skinner Blues
TTITLE4=Don't Fall In Love With A Rambler
TTITLE5=Kentucky Girl
TTITLE6=Gloryland
TTITLE7=Big Spike Hammer
TTITLE8=White Washed Chimney
TTITLE9=Old Flames
TTITLE10=Lonesome Road Blues
TTITLE11=Love of the Mountains
TTITLE12=Hills of Kentucky
EXTD=
EXTT0=
EXTT1=
EXTT2=
EXTT3=
EXTT4=
EXTT5=
EXTT6=
EXTT7=
EXTT8=
EXTT9=
EXTT10=
EXTT11=
EXTT12=
PLAYORDER=
